<mxfile host="app.diagrams.net" modified="2020-11-18T04:12:15.859Z" agent="5.0 (Windows NT 10.0; Win64; x64) AppleWebKit/537.36 (KHTML, like Gecko) Chrome/86.0.4240.198 Safari/537.36" etag="eZNh9rBKmUNGa9380Bzr" version="13.9.9" type="github">
  <diagram id="C5RBs43oDa-KdzZeNtuy" name="Page-1">
    <mxGraphModel dx="4857" dy="3259" grid="1" gridSize="10" guides="1" tooltips="1" connect="1" arrows="1" fold="1" page="1" pageScale="1" pageWidth="827" pageHeight="1169" math="0" shadow="0">
      <root>
        <mxCell id="WIyWlLk6GJQsqaUBKTNV-0" />
        <mxCell id="WIyWlLk6GJQsqaUBKTNV-1" parent="WIyWlLk6GJQsqaUBKTNV-0" />
        <mxCell id="zkfFHV4jXpPFQw0GAbJ--6" value="Bank" style="swimlane;fontStyle=1;align=center;verticalAlign=top;childLayout=stackLayout;horizontal=1;startSize=26;horizontalStack=0;resizeParent=1;resizeLast=0;collapsible=1;marginBottom=0;rounded=0;shadow=0;strokeWidth=1;fillColor=#e1d5e7;strokeColor=#9673a6;" parent="WIyWlLk6GJQsqaUBKTNV-1" vertex="1">
          <mxGeometry x="60" y="339" width="150" height="151" as="geometry">
            <mxRectangle x="130" y="380" width="160" height="26" as="alternateBounds" />
          </mxGeometry>
        </mxCell>
        <mxCell id="vttsbmmWQYoynth4GKyR-97" value="-bank: string&lt;br&gt;-cardNo:double&lt;br&gt;-cvv: integer&lt;br&gt;-expDate: double" style="text;html=1;align=left;verticalAlign=middle;resizable=0;points=[];autosize=1;" parent="zkfFHV4jXpPFQw0GAbJ--6" vertex="1">
          <mxGeometry y="26" width="150" height="60" as="geometry" />
        </mxCell>
        <mxCell id="zkfFHV4jXpPFQw0GAbJ--9" value="" style="line;html=1;strokeWidth=1;align=left;verticalAlign=middle;spacingTop=-1;spacingLeft=3;spacingRight=3;rotatable=0;labelPosition=right;points=[];portConstraint=eastwest;" parent="zkfFHV4jXpPFQw0GAbJ--6" vertex="1">
          <mxGeometry y="86" width="150" height="30" as="geometry" />
        </mxCell>
        <mxCell id="vttsbmmWQYoynth4GKyR-96" value="&lt;div&gt;&lt;span&gt;+ addcard()&lt;/span&gt;&lt;/div&gt;&lt;div&gt;&lt;span&gt;+removecard()&lt;/span&gt;&lt;/div&gt;" style="text;html=1;align=left;verticalAlign=middle;resizable=0;points=[];autosize=1;" parent="zkfFHV4jXpPFQw0GAbJ--6" vertex="1">
          <mxGeometry y="116" width="150" height="30" as="geometry" />
        </mxCell>
        <mxCell id="zkfFHV4jXpPFQw0GAbJ--12" value="" style="endArrow=block;endSize=10;endFill=0;shadow=0;strokeWidth=1;rounded=0;edgeStyle=elbowEdgeStyle;elbow=vertical;" parent="WIyWlLk6GJQsqaUBKTNV-1" source="zkfFHV4jXpPFQw0GAbJ--6" edge="1">
          <mxGeometry width="160" relative="1" as="geometry">
            <mxPoint x="40" y="143" as="sourcePoint" />
            <mxPoint x="210" y="220" as="targetPoint" />
          </mxGeometry>
        </mxCell>
        <mxCell id="zkfFHV4jXpPFQw0GAbJ--13" value="Cash" style="swimlane;fontStyle=1;align=center;verticalAlign=top;childLayout=stackLayout;horizontal=1;startSize=26;horizontalStack=0;resizeParent=1;resizeLast=0;collapsible=1;marginBottom=0;rounded=0;shadow=0;strokeWidth=1;fillColor=#e1d5e7;strokeColor=#9673a6;" parent="WIyWlLk6GJQsqaUBKTNV-1" vertex="1">
          <mxGeometry x="260" y="339" width="160" height="90" as="geometry">
            <mxRectangle x="340" y="380" width="170" height="26" as="alternateBounds" />
          </mxGeometry>
        </mxCell>
        <mxCell id="wF1H9ZoLy-IsOHRcpP01-1" value="+ resevied: boolean" style="text;html=1;align=left;verticalAlign=middle;resizable=0;points=[];autosize=1;" vertex="1" parent="zkfFHV4jXpPFQw0GAbJ--13">
          <mxGeometry y="26" width="160" height="20" as="geometry" />
        </mxCell>
        <mxCell id="zkfFHV4jXpPFQw0GAbJ--15" value="" style="line;html=1;strokeWidth=1;align=left;verticalAlign=middle;spacingTop=-1;spacingLeft=3;spacingRight=3;rotatable=0;labelPosition=right;points=[];portConstraint=eastwest;" parent="zkfFHV4jXpPFQw0GAbJ--13" vertex="1">
          <mxGeometry y="46" width="160" height="44" as="geometry" />
        </mxCell>
        <mxCell id="zkfFHV4jXpPFQw0GAbJ--16" value="" style="endArrow=block;endSize=10;endFill=0;shadow=0;strokeWidth=1;rounded=0;edgeStyle=elbowEdgeStyle;elbow=vertical;" parent="WIyWlLk6GJQsqaUBKTNV-1" source="zkfFHV4jXpPFQw0GAbJ--13" edge="1">
          <mxGeometry width="160" relative="1" as="geometry">
            <mxPoint x="50" y="313" as="sourcePoint" />
            <mxPoint x="260" y="220" as="targetPoint" />
          </mxGeometry>
        </mxCell>
        <mxCell id="wF1H9ZoLy-IsOHRcpP01-3" style="edgeStyle=orthogonalEdgeStyle;rounded=0;orthogonalLoop=1;jettySize=auto;html=1;" edge="1" parent="WIyWlLk6GJQsqaUBKTNV-1" source="vttsbmmWQYoynth4GKyR-11">
          <mxGeometry relative="1" as="geometry">
            <mxPoint x="642" y="-320" as="targetPoint" />
            <Array as="points">
              <mxPoint x="642" y="-290" />
              <mxPoint x="642" y="-290" />
            </Array>
          </mxGeometry>
        </mxCell>
        <mxCell id="vttsbmmWQYoynth4GKyR-11" value="AddItem" style="swimlane;fontStyle=1;align=center;verticalAlign=top;childLayout=stackLayout;horizontal=1;startSize=26;horizontalStack=0;resizeParent=1;resizeParentMax=0;resizeLast=0;collapsible=1;marginBottom=0;fillColor=#e1d5e7;strokeColor=#9673a6;" parent="WIyWlLk6GJQsqaUBKTNV-1" vertex="1">
          <mxGeometry x="570" y="-250" width="160" height="60" as="geometry" />
        </mxCell>
        <mxCell id="vttsbmmWQYoynth4GKyR-12" value="+ quentity: double" style="text;strokeColor=none;fillColor=none;align=left;verticalAlign=top;spacingLeft=4;spacingRight=4;overflow=hidden;rotatable=0;points=[[0,0.5],[1,0.5]];portConstraint=eastwest;" parent="vttsbmmWQYoynth4GKyR-11" vertex="1">
          <mxGeometry y="26" width="160" height="26" as="geometry" />
        </mxCell>
        <mxCell id="vttsbmmWQYoynth4GKyR-13" value="" style="line;strokeWidth=1;fillColor=none;align=left;verticalAlign=middle;spacingTop=-1;spacingLeft=3;spacingRight=3;rotatable=0;labelPosition=right;points=[];portConstraint=eastwest;" parent="vttsbmmWQYoynth4GKyR-11" vertex="1">
          <mxGeometry y="52" width="160" height="8" as="geometry" />
        </mxCell>
        <mxCell id="vttsbmmWQYoynth4GKyR-15" value="Food Item" style="swimlane;fontStyle=1;align=center;verticalAlign=top;childLayout=stackLayout;horizontal=1;startSize=26;horizontalStack=0;resizeParent=1;resizeParentMax=0;resizeLast=0;collapsible=1;marginBottom=0;fillColor=#e1d5e7;strokeColor=#9673a6;" parent="WIyWlLk6GJQsqaUBKTNV-1" vertex="1">
          <mxGeometry x="570" y="-460" width="160" height="138" as="geometry" />
        </mxCell>
        <mxCell id="vttsbmmWQYoynth4GKyR-16" value="+ category: string&#xa;+ name: string&#xa;+ location: string&#xa;+ foodID: string&#xa;+ listingNo: double&#xa;+ quentity: double" style="text;strokeColor=none;fillColor=none;align=left;verticalAlign=top;spacingLeft=4;spacingRight=4;overflow=hidden;rotatable=0;points=[[0,0.5],[1,0.5]];portConstraint=eastwest;" parent="vttsbmmWQYoynth4GKyR-15" vertex="1">
          <mxGeometry y="26" width="160" height="84" as="geometry" />
        </mxCell>
        <mxCell id="vttsbmmWQYoynth4GKyR-17" value="" style="line;strokeWidth=1;fillColor=none;align=left;verticalAlign=middle;spacingTop=-1;spacingLeft=3;spacingRight=3;rotatable=0;labelPosition=right;points=[];portConstraint=eastwest;" parent="vttsbmmWQYoynth4GKyR-15" vertex="1">
          <mxGeometry y="110" width="160" height="28" as="geometry" />
        </mxCell>
        <mxCell id="vttsbmmWQYoynth4GKyR-19" value="Buyer" style="swimlane;fontStyle=1;align=center;verticalAlign=top;childLayout=stackLayout;horizontal=1;startSize=26;horizontalStack=0;resizeParent=1;resizeParentMax=0;resizeLast=0;collapsible=1;marginBottom=0;fillColor=#e1d5e7;strokeColor=#9673a6;" parent="WIyWlLk6GJQsqaUBKTNV-1" vertex="1">
          <mxGeometry x="200" y="-700" width="160" height="118" as="geometry" />
        </mxCell>
        <mxCell id="vttsbmmWQYoynth4GKyR-20" value="+ endLocation: string" style="text;strokeColor=none;fillColor=none;align=left;verticalAlign=top;spacingLeft=4;spacingRight=4;overflow=hidden;rotatable=0;points=[[0,0.5],[1,0.5]];portConstraint=eastwest;" parent="vttsbmmWQYoynth4GKyR-19" vertex="1">
          <mxGeometry y="26" width="160" height="44" as="geometry" />
        </mxCell>
        <mxCell id="vttsbmmWQYoynth4GKyR-21" value="" style="line;strokeWidth=1;fillColor=none;align=left;verticalAlign=middle;spacingTop=-1;spacingLeft=3;spacingRight=3;rotatable=0;labelPosition=right;points=[];portConstraint=eastwest;" parent="vttsbmmWQYoynth4GKyR-19" vertex="1">
          <mxGeometry y="70" width="160" height="8" as="geometry" />
        </mxCell>
        <mxCell id="vttsbmmWQYoynth4GKyR-22" value="+ Search()&#xa;+ RequestedOrder()&#xa;" style="text;strokeColor=none;fillColor=none;align=left;verticalAlign=top;spacingLeft=4;spacingRight=4;overflow=hidden;rotatable=0;points=[[0,0.5],[1,0.5]];portConstraint=eastwest;" parent="vttsbmmWQYoynth4GKyR-19" vertex="1">
          <mxGeometry y="78" width="160" height="40" as="geometry" />
        </mxCell>
        <mxCell id="vttsbmmWQYoynth4GKyR-23" value="RequestedOrder" style="swimlane;fontStyle=1;align=center;verticalAlign=top;childLayout=stackLayout;horizontal=1;startSize=26;horizontalStack=0;resizeParent=1;resizeParentMax=0;resizeLast=0;collapsible=1;marginBottom=0;fillColor=#e1d5e7;strokeColor=#9673a6;" parent="WIyWlLk6GJQsqaUBKTNV-1" vertex="1">
          <mxGeometry x="-50" y="-364" width="160" height="94" as="geometry" />
        </mxCell>
        <mxCell id="vttsbmmWQYoynth4GKyR-24" value="+ askprice: double&#xa;+ askQuentity: double" style="text;strokeColor=none;fillColor=none;align=left;verticalAlign=top;spacingLeft=4;spacingRight=4;overflow=hidden;rotatable=0;points=[[0,0.5],[1,0.5]];portConstraint=eastwest;" parent="vttsbmmWQYoynth4GKyR-23" vertex="1">
          <mxGeometry y="26" width="160" height="34" as="geometry" />
        </mxCell>
        <mxCell id="vttsbmmWQYoynth4GKyR-25" value="" style="line;strokeWidth=1;fillColor=none;align=left;verticalAlign=middle;spacingTop=-1;spacingLeft=3;spacingRight=3;rotatable=0;labelPosition=right;points=[];portConstraint=eastwest;" parent="vttsbmmWQYoynth4GKyR-23" vertex="1">
          <mxGeometry y="60" width="160" height="8" as="geometry" />
        </mxCell>
        <mxCell id="vttsbmmWQYoynth4GKyR-26" value="+ ChooseSupplier()" style="text;strokeColor=none;fillColor=none;align=left;verticalAlign=top;spacingLeft=4;spacingRight=4;overflow=hidden;rotatable=0;points=[[0,0.5],[1,0.5]];portConstraint=eastwest;" parent="vttsbmmWQYoynth4GKyR-23" vertex="1">
          <mxGeometry y="68" width="160" height="26" as="geometry" />
        </mxCell>
        <mxCell id="wF1H9ZoLy-IsOHRcpP01-5" style="edgeStyle=orthogonalEdgeStyle;rounded=0;orthogonalLoop=1;jettySize=auto;html=1;entryX=0.5;entryY=1;entryDx=0;entryDy=0;exitX=0.573;exitY=-0.004;exitDx=0;exitDy=0;exitPerimeter=0;" edge="1" parent="WIyWlLk6GJQsqaUBKTNV-1" source="vttsbmmWQYoynth4GKyR-31" target="vttsbmmWQYoynth4GKyR-11">
          <mxGeometry relative="1" as="geometry" />
        </mxCell>
        <mxCell id="vttsbmmWQYoynth4GKyR-31" value="DeliverFee" style="swimlane;fontStyle=1;align=center;verticalAlign=top;childLayout=stackLayout;horizontal=1;startSize=26;horizontalStack=0;resizeParent=1;resizeParentMax=0;resizeLast=0;collapsible=1;marginBottom=0;fillColor=#e1d5e7;strokeColor=#9673a6;" parent="WIyWlLk6GJQsqaUBKTNV-1" vertex="1">
          <mxGeometry x="560" y="-106" width="160" height="144" as="geometry" />
        </mxCell>
        <mxCell id="vttsbmmWQYoynth4GKyR-32" value="+ startLocation: string&#xa;+ endLcation: string&#xa;+ transpotationFee: int&#xa;+volume&amp;weight Fee: int" style="text;strokeColor=none;fillColor=none;align=left;verticalAlign=top;spacingLeft=4;spacingRight=4;overflow=hidden;rotatable=0;points=[[0,0.5],[1,0.5]];portConstraint=eastwest;" parent="vttsbmmWQYoynth4GKyR-31" vertex="1">
          <mxGeometry y="26" width="160" height="84" as="geometry" />
        </mxCell>
        <mxCell id="vttsbmmWQYoynth4GKyR-33" value="" style="line;strokeWidth=1;fillColor=none;align=left;verticalAlign=middle;spacingTop=-1;spacingLeft=3;spacingRight=3;rotatable=0;labelPosition=right;points=[];portConstraint=eastwest;" parent="vttsbmmWQYoynth4GKyR-31" vertex="1">
          <mxGeometry y="110" width="160" height="8" as="geometry" />
        </mxCell>
        <mxCell id="vttsbmmWQYoynth4GKyR-34" value="+ PrintDelFee()" style="text;strokeColor=none;fillColor=none;align=left;verticalAlign=top;spacingLeft=4;spacingRight=4;overflow=hidden;rotatable=0;points=[[0,0.5],[1,0.5]];portConstraint=eastwest;" parent="vttsbmmWQYoynth4GKyR-31" vertex="1">
          <mxGeometry y="118" width="160" height="26" as="geometry" />
        </mxCell>
        <mxCell id="vttsbmmWQYoynth4GKyR-35" value="Cart" style="swimlane;fontStyle=1;align=center;verticalAlign=top;childLayout=stackLayout;horizontal=1;startSize=26;horizontalStack=0;resizeParent=1;resizeParentMax=0;resizeLast=0;collapsible=1;marginBottom=0;fillColor=#e1d5e7;strokeColor=#9673a6;" parent="WIyWlLk6GJQsqaUBKTNV-1" vertex="1">
          <mxGeometry x="254" y="-280" width="160" height="150" as="geometry" />
        </mxCell>
        <mxCell id="vttsbmmWQYoynth4GKyR-36" value="+ totalPrice: int&#xa;+ TotalDeliverFee: double&#xa;+ addedItems: Additem[0..*]" style="text;strokeColor=none;fillColor=none;align=left;verticalAlign=top;spacingLeft=4;spacingRight=4;overflow=hidden;rotatable=0;points=[[0,0.5],[1,0.5]];portConstraint=eastwest;" parent="vttsbmmWQYoynth4GKyR-35" vertex="1">
          <mxGeometry y="26" width="160" height="54" as="geometry" />
        </mxCell>
        <mxCell id="vttsbmmWQYoynth4GKyR-37" value="" style="line;strokeWidth=1;fillColor=none;align=left;verticalAlign=middle;spacingTop=-1;spacingLeft=3;spacingRight=3;rotatable=0;labelPosition=right;points=[];portConstraint=eastwest;" parent="vttsbmmWQYoynth4GKyR-35" vertex="1">
          <mxGeometry y="80" width="160" height="20" as="geometry" />
        </mxCell>
        <mxCell id="vttsbmmWQYoynth4GKyR-38" value="+ remove():&#xa;+ add()&#xa;+ checkout()" style="text;strokeColor=none;fillColor=none;align=left;verticalAlign=top;spacingLeft=4;spacingRight=4;overflow=hidden;rotatable=0;points=[[0,0.5],[1,0.5]];portConstraint=eastwest;" parent="vttsbmmWQYoynth4GKyR-35" vertex="1">
          <mxGeometry y="100" width="160" height="50" as="geometry" />
        </mxCell>
        <mxCell id="vttsbmmWQYoynth4GKyR-39" value="Order" style="swimlane;fontStyle=1;align=center;verticalAlign=top;childLayout=stackLayout;horizontal=1;startSize=26;horizontalStack=0;resizeParent=1;resizeParentMax=0;resizeLast=0;collapsible=1;marginBottom=0;fillColor=#e1d5e7;strokeColor=#9673a6;" parent="WIyWlLk6GJQsqaUBKTNV-1" vertex="1">
          <mxGeometry x="85" y="-99" width="160" height="130" as="geometry" />
        </mxCell>
        <mxCell id="vttsbmmWQYoynth4GKyR-40" value="+ Oid: doublr" style="text;strokeColor=none;fillColor=none;align=left;verticalAlign=top;spacingLeft=4;spacingRight=4;overflow=hidden;rotatable=0;points=[[0,0.5],[1,0.5]];portConstraint=eastwest;" parent="vttsbmmWQYoynth4GKyR-39" vertex="1">
          <mxGeometry y="26" width="160" height="54" as="geometry" />
        </mxCell>
        <mxCell id="vttsbmmWQYoynth4GKyR-41" value="" style="line;strokeWidth=1;fillColor=none;align=left;verticalAlign=middle;spacingTop=-1;spacingLeft=3;spacingRight=3;rotatable=0;labelPosition=right;points=[];portConstraint=eastwest;" parent="vttsbmmWQYoynth4GKyR-39" vertex="1">
          <mxGeometry y="80" width="160" height="8" as="geometry" />
        </mxCell>
        <mxCell id="vttsbmmWQYoynth4GKyR-42" value="+ method(type): type" style="text;strokeColor=none;fillColor=none;align=left;verticalAlign=top;spacingLeft=4;spacingRight=4;overflow=hidden;rotatable=0;points=[[0,0.5],[1,0.5]];portConstraint=eastwest;" parent="vttsbmmWQYoynth4GKyR-39" vertex="1">
          <mxGeometry y="88" width="160" height="42" as="geometry" />
        </mxCell>
        <mxCell id="wF1H9ZoLy-IsOHRcpP01-9" style="edgeStyle=orthogonalEdgeStyle;rounded=0;orthogonalLoop=1;jettySize=auto;html=1;" edge="1" parent="WIyWlLk6GJQsqaUBKTNV-1" source="vttsbmmWQYoynth4GKyR-43" target="vttsbmmWQYoynth4GKyR-40">
          <mxGeometry relative="1" as="geometry">
            <mxPoint x="90" y="-30" as="targetPoint" />
            <Array as="points">
              <mxPoint x="-60" y="-20" />
            </Array>
          </mxGeometry>
        </mxCell>
        <mxCell id="vttsbmmWQYoynth4GKyR-43" value="Invoice" style="swimlane;fontStyle=1;align=center;verticalAlign=top;childLayout=stackLayout;horizontal=1;startSize=32;horizontalStack=0;resizeParent=1;resizeParentMax=0;resizeLast=0;collapsible=1;marginBottom=0;fillColor=#e1d5e7;strokeColor=#9673a6;" parent="WIyWlLk6GJQsqaUBKTNV-1" vertex="1">
          <mxGeometry x="-140" y="131" width="160" height="66" as="geometry" />
        </mxCell>
        <mxCell id="vttsbmmWQYoynth4GKyR-45" value="" style="line;strokeWidth=1;fillColor=none;align=left;verticalAlign=middle;spacingTop=-1;spacingLeft=3;spacingRight=3;rotatable=0;labelPosition=right;points=[];portConstraint=eastwest;" parent="vttsbmmWQYoynth4GKyR-43" vertex="1">
          <mxGeometry y="32" width="160" height="8" as="geometry" />
        </mxCell>
        <mxCell id="vttsbmmWQYoynth4GKyR-46" value="+ Print()" style="text;strokeColor=none;fillColor=none;align=left;verticalAlign=top;spacingLeft=4;spacingRight=4;overflow=hidden;rotatable=0;points=[[0,0.5],[1,0.5]];portConstraint=eastwest;" parent="vttsbmmWQYoynth4GKyR-43" vertex="1">
          <mxGeometry y="40" width="160" height="26" as="geometry" />
        </mxCell>
        <mxCell id="vttsbmmWQYoynth4GKyR-51" value="" style="endArrow=diamondThin;endFill=1;endSize=24;html=1;entryX=0.788;entryY=1.053;entryDx=0;entryDy=0;entryPerimeter=0;exitX=0.382;exitY=0;exitDx=0;exitDy=0;exitPerimeter=0;" parent="WIyWlLk6GJQsqaUBKTNV-1" target="vttsbmmWQYoynth4GKyR-42" edge="1" source="wF1H9ZoLy-IsOHRcpP01-15">
          <mxGeometry width="160" relative="1" as="geometry">
            <mxPoint x="210" y="100.00000000000023" as="sourcePoint" />
            <mxPoint x="173" y="-24" as="targetPoint" />
          </mxGeometry>
        </mxCell>
        <mxCell id="wF1H9ZoLy-IsOHRcpP01-11" value="has" style="edgeLabel;html=1;align=center;verticalAlign=middle;resizable=0;points=[];" vertex="1" connectable="0" parent="vttsbmmWQYoynth4GKyR-51">
          <mxGeometry x="-0.1437" y="-2" relative="1" as="geometry">
            <mxPoint as="offset" />
          </mxGeometry>
        </mxCell>
        <mxCell id="vttsbmmWQYoynth4GKyR-65" value="" style="endArrow=diamondThin;endFill=1;endSize=24;html=1;entryX=0.788;entryY=1.094;entryDx=0;entryDy=0;entryPerimeter=0;exitX=-0.015;exitY=0.138;exitDx=0;exitDy=0;exitPerimeter=0;" parent="WIyWlLk6GJQsqaUBKTNV-1" source="vttsbmmWQYoynth4GKyR-32" target="vttsbmmWQYoynth4GKyR-38" edge="1">
          <mxGeometry width="160" relative="1" as="geometry">
            <mxPoint x="500" y="-70" as="sourcePoint" />
            <mxPoint x="334.8800000000001" y="50.003999999999905" as="targetPoint" />
            <Array as="points">
              <mxPoint x="380" y="-70" />
            </Array>
          </mxGeometry>
        </mxCell>
        <mxCell id="vttsbmmWQYoynth4GKyR-66" value="" style="endArrow=diamondThin;endFill=0;endSize=24;html=1;entryX=0.521;entryY=1.094;entryDx=0;entryDy=0;entryPerimeter=0;exitX=-0.001;exitY=0.863;exitDx=0;exitDy=0;exitPerimeter=0;" parent="WIyWlLk6GJQsqaUBKTNV-1" source="vttsbmmWQYoynth4GKyR-36" target="vttsbmmWQYoynth4GKyR-26" edge="1">
          <mxGeometry width="160" relative="1" as="geometry">
            <mxPoint x="344" y="-40" as="sourcePoint" />
            <mxPoint x="344" y="-164" as="targetPoint" />
            <Array as="points">
              <mxPoint x="33" y="-207" />
            </Array>
          </mxGeometry>
        </mxCell>
        <mxCell id="vttsbmmWQYoynth4GKyR-67" value="Deliver" style="swimlane;fontStyle=1;align=center;verticalAlign=top;childLayout=stackLayout;horizontal=1;startSize=26;horizontalStack=0;resizeParent=1;resizeParentMax=0;resizeLast=0;collapsible=1;marginBottom=0;fillColor=#e1d5e7;strokeColor=#9673a6;" parent="WIyWlLk6GJQsqaUBKTNV-1" vertex="1">
          <mxGeometry x="-165" y="-706" width="170" height="120" as="geometry" />
        </mxCell>
        <mxCell id="vttsbmmWQYoynth4GKyR-68" value="+ availeblity: boolean" style="text;strokeColor=none;fillColor=none;align=left;verticalAlign=top;spacingLeft=4;spacingRight=4;overflow=hidden;rotatable=0;points=[[0,0.5],[1,0.5]];portConstraint=eastwest;" parent="vttsbmmWQYoynth4GKyR-67" vertex="1">
          <mxGeometry y="26" width="170" height="44" as="geometry" />
        </mxCell>
        <mxCell id="vttsbmmWQYoynth4GKyR-69" value="" style="line;strokeWidth=1;fillColor=none;align=left;verticalAlign=middle;spacingTop=-1;spacingLeft=3;spacingRight=3;rotatable=0;labelPosition=right;points=[];portConstraint=eastwest;" parent="vttsbmmWQYoynth4GKyR-67" vertex="1">
          <mxGeometry y="70" width="170" height="8" as="geometry" />
        </mxCell>
        <mxCell id="vttsbmmWQYoynth4GKyR-70" value="+ CheckDelivery()" style="text;strokeColor=none;fillColor=none;align=left;verticalAlign=top;spacingLeft=4;spacingRight=4;overflow=hidden;rotatable=0;points=[[0,0.5],[1,0.5]];portConstraint=eastwest;" parent="vttsbmmWQYoynth4GKyR-67" vertex="1">
          <mxGeometry y="78" width="170" height="42" as="geometry" />
        </mxCell>
        <mxCell id="vttsbmmWQYoynth4GKyR-71" value="Bid" style="swimlane;fontStyle=1;align=center;verticalAlign=top;childLayout=stackLayout;horizontal=1;startSize=26;horizontalStack=0;resizeParent=1;resizeParentMax=0;resizeLast=0;collapsible=1;marginBottom=0;fillColor=#e1d5e7;strokeColor=#9673a6;" parent="WIyWlLk6GJQsqaUBKTNV-1" vertex="1">
          <mxGeometry x="-50" y="-546" width="160" height="78" as="geometry" />
        </mxCell>
        <mxCell id="vttsbmmWQYoynth4GKyR-72" value="+ bidprice: double&#xa;+ bidQuentity: double" style="text;align=left;verticalAlign=top;spacingLeft=4;spacingRight=4;overflow=hidden;rotatable=0;points=[[0,0.5],[1,0.5]];portConstraint=eastwest;" parent="vttsbmmWQYoynth4GKyR-71" vertex="1">
          <mxGeometry y="26" width="160" height="44" as="geometry" />
        </mxCell>
        <mxCell id="vttsbmmWQYoynth4GKyR-73" value="" style="line;strokeWidth=1;fillColor=none;align=left;verticalAlign=middle;spacingTop=-1;spacingLeft=3;spacingRight=3;rotatable=0;labelPosition=right;points=[];portConstraint=eastwest;" parent="vttsbmmWQYoynth4GKyR-71" vertex="1">
          <mxGeometry y="70" width="160" height="8" as="geometry" />
        </mxCell>
        <mxCell id="vttsbmmWQYoynth4GKyR-75" value="" style="endArrow=diamondThin;endFill=1;endSize=24;html=1;entryX=0.5;entryY=1;entryDx=0;entryDy=0;" parent="WIyWlLk6GJQsqaUBKTNV-1" source="vttsbmmWQYoynth4GKyR-23" target="vttsbmmWQYoynth4GKyR-71" edge="1">
          <mxGeometry width="160" relative="1" as="geometry">
            <mxPoint x="-130" y="-324" as="sourcePoint" />
            <mxPoint x="31.600000000000136" y="-440.44000000000005" as="targetPoint" />
          </mxGeometry>
        </mxCell>
        <mxCell id="vttsbmmWQYoynth4GKyR-77" value="" style="endArrow=diamondThin;endFill=0;endSize=24;html=1;entryX=0.982;entryY=0.966;entryDx=0;entryDy=0;entryPerimeter=0;exitX=0.017;exitY=0.966;exitDx=0;exitDy=0;exitPerimeter=0;" parent="WIyWlLk6GJQsqaUBKTNV-1" source="vttsbmmWQYoynth4GKyR-12" target="vttsbmmWQYoynth4GKyR-36" edge="1">
          <mxGeometry width="160" relative="1" as="geometry">
            <mxPoint x="572" y="-209" as="sourcePoint" />
            <mxPoint x="414" y="-221" as="targetPoint" />
          </mxGeometry>
        </mxCell>
        <mxCell id="vttsbmmWQYoynth4GKyR-80" value="" style="endArrow=none;html=1;entryX=1;entryY=0.5;entryDx=0;entryDy=0;exitX=0.225;exitY=1.128;exitDx=0;exitDy=0;exitPerimeter=0;" parent="WIyWlLk6GJQsqaUBKTNV-1" source="vttsbmmWQYoynth4GKyR-22" target="vttsbmmWQYoynth4GKyR-24" edge="1">
          <mxGeometry width="50" height="50" relative="1" as="geometry">
            <mxPoint x="280" y="-610" as="sourcePoint" />
            <mxPoint x="690" y="-40" as="targetPoint" />
            <Array as="points">
              <mxPoint x="240" y="-325" />
            </Array>
          </mxGeometry>
        </mxCell>
        <mxCell id="vttsbmmWQYoynth4GKyR-95" value="Placed by" style="edgeLabel;html=1;align=center;verticalAlign=middle;resizable=0;points=[];" parent="vttsbmmWQYoynth4GKyR-80" vertex="1" connectable="0">
          <mxGeometry x="0.8037" relative="1" as="geometry">
            <mxPoint x="45" as="offset" />
          </mxGeometry>
        </mxCell>
        <mxCell id="vttsbmmWQYoynth4GKyR-82" value="Supplier" style="swimlane;fontStyle=1;align=center;verticalAlign=top;childLayout=stackLayout;horizontal=1;startSize=26;horizontalStack=0;resizeParent=1;resizeParentMax=0;resizeLast=0;collapsible=1;marginBottom=0;fillColor=#e1d5e7;strokeColor=#9673a6;" parent="WIyWlLk6GJQsqaUBKTNV-1" vertex="1">
          <mxGeometry x="550" y="-700" width="160" height="114" as="geometry" />
        </mxCell>
        <mxCell id="vttsbmmWQYoynth4GKyR-84" value="" style="line;strokeWidth=1;fillColor=none;align=left;verticalAlign=middle;spacingTop=-1;spacingLeft=3;spacingRight=3;rotatable=0;labelPosition=right;points=[];portConstraint=eastwest;" parent="vttsbmmWQYoynth4GKyR-82" vertex="1">
          <mxGeometry y="26" width="160" height="8" as="geometry" />
        </mxCell>
        <mxCell id="vttsbmmWQYoynth4GKyR-85" value="+ ListItem()&#xa;+ Update()&#xa;+ Remove()&#xa;+ Bid()&#xa;+ Fill()&#xa;" style="text;strokeColor=none;fillColor=none;align=left;verticalAlign=top;spacingLeft=4;spacingRight=4;overflow=hidden;rotatable=0;points=[[0,0.5],[1,0.5]];portConstraint=eastwest;" parent="vttsbmmWQYoynth4GKyR-82" vertex="1">
          <mxGeometry y="34" width="160" height="80" as="geometry" />
        </mxCell>
        <mxCell id="vttsbmmWQYoynth4GKyR-86" value="" style="endArrow=none;html=1;entryX=0.377;entryY=-0.01;entryDx=0;entryDy=0;entryPerimeter=0;" parent="WIyWlLk6GJQsqaUBKTNV-1" edge="1" target="vttsbmmWQYoynth4GKyR-15">
          <mxGeometry width="50" height="50" relative="1" as="geometry">
            <mxPoint x="629" y="-586" as="sourcePoint" />
            <mxPoint x="629" y="-461" as="targetPoint" />
          </mxGeometry>
        </mxCell>
        <mxCell id="vttsbmmWQYoynth4GKyR-87" value="List" style="edgeLabel;html=1;align=center;verticalAlign=middle;resizable=0;points=[];" parent="vttsbmmWQYoynth4GKyR-86" vertex="1" connectable="0">
          <mxGeometry x="-0.3207" y="-1" relative="1" as="geometry">
            <mxPoint x="2" y="8" as="offset" />
          </mxGeometry>
        </mxCell>
        <mxCell id="vttsbmmWQYoynth4GKyR-89" value="" style="endArrow=none;html=1;exitX=0.21;exitY=1.004;exitDx=0;exitDy=0;exitPerimeter=0;entryX=0.999;entryY=1.017;entryDx=0;entryDy=0;entryPerimeter=0;" parent="WIyWlLk6GJQsqaUBKTNV-1" source="vttsbmmWQYoynth4GKyR-85" target="vttsbmmWQYoynth4GKyR-72" edge="1">
          <mxGeometry width="50" height="50" relative="1" as="geometry">
            <mxPoint x="571.12" y="-609.306" as="sourcePoint" />
            <mxPoint x="570.0000000000001" y="-449.9980000000001" as="targetPoint" />
            <Array as="points">
              <mxPoint x="510" y="-475" />
            </Array>
          </mxGeometry>
        </mxCell>
        <mxCell id="vttsbmmWQYoynth4GKyR-92" value="Entered by" style="edgeLabel;html=1;align=center;verticalAlign=middle;resizable=0;points=[];" parent="vttsbmmWQYoynth4GKyR-89" vertex="1" connectable="0">
          <mxGeometry x="0.8074" y="2" relative="1" as="geometry">
            <mxPoint x="272.33" y="-2.39" as="offset" />
          </mxGeometry>
        </mxCell>
        <mxCell id="vttsbmmWQYoynth4GKyR-94" value="" style="html=1;verticalAlign=bottom;endArrow=block;entryX=0.432;entryY=1.128;entryDx=0;entryDy=0;entryPerimeter=0;exitX=1.026;exitY=0.28;exitDx=0;exitDy=0;exitPerimeter=0;" parent="WIyWlLk6GJQsqaUBKTNV-1" source="vttsbmmWQYoynth4GKyR-40" target="vttsbmmWQYoynth4GKyR-38" edge="1">
          <mxGeometry width="80" relative="1" as="geometry">
            <mxPoint x="340" y="-7" as="sourcePoint" />
            <mxPoint x="450" y="-120" as="targetPoint" />
            <Array as="points">
              <mxPoint x="323" y="-59" />
            </Array>
          </mxGeometry>
        </mxCell>
        <mxCell id="vttsbmmWQYoynth4GKyR-98" value="" style="endArrow=none;html=1;exitX=0.731;exitY=1.128;exitDx=0;exitDy=0;exitPerimeter=0;entryX=0.413;entryY=0;entryDx=0;entryDy=0;entryPerimeter=0;" parent="WIyWlLk6GJQsqaUBKTNV-1" source="vttsbmmWQYoynth4GKyR-22" target="vttsbmmWQYoynth4GKyR-35" edge="1">
          <mxGeometry width="50" height="50" relative="1" as="geometry">
            <mxPoint x="643.3600000000001" y="-349.9960000000001" as="sourcePoint" />
            <mxPoint x="645.1199999999999" y="-254.90200000000004" as="targetPoint" />
          </mxGeometry>
        </mxCell>
        <mxCell id="vttsbmmWQYoynth4GKyR-99" value="Make" style="edgeLabel;html=1;align=center;verticalAlign=middle;resizable=0;points=[];" parent="vttsbmmWQYoynth4GKyR-98" vertex="1" connectable="0">
          <mxGeometry x="-0.609" y="-1" relative="1" as="geometry">
            <mxPoint as="offset" />
          </mxGeometry>
        </mxCell>
        <mxCell id="vttsbmmWQYoynth4GKyR-100" value="" style="endArrow=none;html=1;exitX=0.318;exitY=1.162;exitDx=0;exitDy=0;exitPerimeter=0;entryX=-0.004;entryY=0.214;entryDx=0;entryDy=0;entryPerimeter=0;" parent="WIyWlLk6GJQsqaUBKTNV-1" source="vttsbmmWQYoynth4GKyR-70" target="vttsbmmWQYoynth4GKyR-40" edge="1">
          <mxGeometry width="50" height="50" relative="1" as="geometry">
            <mxPoint x="-130" y="-600" as="sourcePoint" />
            <mxPoint x="-120" y="-330" as="targetPoint" />
            <Array as="points">
              <mxPoint x="-111" y="-60" />
            </Array>
          </mxGeometry>
        </mxCell>
        <mxCell id="vttsbmmWQYoynth4GKyR-101" value="User" style="swimlane;fontStyle=1;align=center;verticalAlign=top;childLayout=stackLayout;horizontal=1;startSize=26;horizontalStack=0;resizeParent=1;resizeParentMax=0;resizeLast=0;collapsible=1;marginBottom=0;fillColor=#e1d5e7;strokeColor=#9673a6;" parent="WIyWlLk6GJQsqaUBKTNV-1" vertex="1">
          <mxGeometry x="190" y="-990" width="160" height="230" as="geometry" />
        </mxCell>
        <mxCell id="vttsbmmWQYoynth4GKyR-102" value="- email: string&#xa;+ userName: string&#xa;+ userID: double&#xa;- password: string&#xa;+ firstName: string&#xa;+ lastName: string&#xa;+ address: string&#xa;+ mobileNo: double" style="text;strokeColor=none;fillColor=none;align=left;verticalAlign=top;spacingLeft=4;spacingRight=4;overflow=hidden;rotatable=0;points=[[0,0.5],[1,0.5]];portConstraint=eastwest;" parent="vttsbmmWQYoynth4GKyR-101" vertex="1">
          <mxGeometry y="26" width="160" height="124" as="geometry" />
        </mxCell>
        <mxCell id="vttsbmmWQYoynth4GKyR-103" value="" style="line;strokeWidth=1;fillColor=none;align=left;verticalAlign=middle;spacingTop=-1;spacingLeft=3;spacingRight=3;rotatable=0;labelPosition=right;points=[];portConstraint=eastwest;" parent="vttsbmmWQYoynth4GKyR-101" vertex="1">
          <mxGeometry y="150" width="160" height="8" as="geometry" />
        </mxCell>
        <mxCell id="vttsbmmWQYoynth4GKyR-104" value="+ GetEmail()&#xa;-  Signup()&#xa;-  Login()" style="text;strokeColor=none;fillColor=none;align=left;verticalAlign=top;spacingLeft=4;spacingRight=4;overflow=hidden;rotatable=0;points=[[0,0.5],[1,0.5]];portConstraint=eastwest;" parent="vttsbmmWQYoynth4GKyR-101" vertex="1">
          <mxGeometry y="158" width="160" height="72" as="geometry" />
        </mxCell>
        <mxCell id="vttsbmmWQYoynth4GKyR-111" value="" style="endArrow=classic;html=1;exitX=0.5;exitY=0;exitDx=0;exitDy=0;entryX=0.549;entryY=1.005;entryDx=0;entryDy=0;entryPerimeter=0;" parent="WIyWlLk6GJQsqaUBKTNV-1" source="vttsbmmWQYoynth4GKyR-19" target="vttsbmmWQYoynth4GKyR-104" edge="1">
          <mxGeometry width="50" height="50" relative="1" as="geometry">
            <mxPoint x="240" y="-870" as="sourcePoint" />
            <mxPoint x="290" y="-920" as="targetPoint" />
          </mxGeometry>
        </mxCell>
        <mxCell id="vttsbmmWQYoynth4GKyR-112" value="" style="endArrow=classic;html=1;exitX=0.599;exitY=-0.026;exitDx=0;exitDy=0;exitPerimeter=0;entryX=0.76;entryY=1.026;entryDx=0;entryDy=0;entryPerimeter=0;" parent="WIyWlLk6GJQsqaUBKTNV-1" source="vttsbmmWQYoynth4GKyR-82" target="vttsbmmWQYoynth4GKyR-104" edge="1">
          <mxGeometry width="50" height="50" relative="1" as="geometry">
            <mxPoint x="240" y="-870" as="sourcePoint" />
            <mxPoint x="290" y="-920" as="targetPoint" />
          </mxGeometry>
        </mxCell>
        <mxCell id="vttsbmmWQYoynth4GKyR-113" value="" style="endArrow=classic;html=1;entryX=0.26;entryY=1.034;entryDx=0;entryDy=0;entryPerimeter=0;" parent="WIyWlLk6GJQsqaUBKTNV-1" source="vttsbmmWQYoynth4GKyR-67" target="vttsbmmWQYoynth4GKyR-104" edge="1">
          <mxGeometry width="50" height="50" relative="1" as="geometry">
            <mxPoint x="240" y="-870" as="sourcePoint" />
            <mxPoint x="-90" y="-820" as="targetPoint" />
          </mxGeometry>
        </mxCell>
        <mxCell id="vttsbmmWQYoynth4GKyR-115" value="1..*" style="text;html=1;align=center;verticalAlign=middle;resizable=0;points=[];autosize=1;" parent="WIyWlLk6GJQsqaUBKTNV-1" vertex="1">
          <mxGeometry x="55" y="-80" width="30" height="20" as="geometry" />
        </mxCell>
        <mxCell id="vttsbmmWQYoynth4GKyR-116" value="0..*" style="text;html=1;align=center;verticalAlign=middle;resizable=0;points=[];autosize=1;" parent="WIyWlLk6GJQsqaUBKTNV-1" vertex="1">
          <mxGeometry x="-140" y="-580" width="30" height="20" as="geometry" />
        </mxCell>
        <mxCell id="vttsbmmWQYoynth4GKyR-118" value="1" style="text;html=1;align=center;verticalAlign=middle;resizable=0;points=[];autosize=1;" parent="WIyWlLk6GJQsqaUBKTNV-1" vertex="1">
          <mxGeometry x="60" y="-20" width="20" height="20" as="geometry" />
        </mxCell>
        <mxCell id="vttsbmmWQYoynth4GKyR-121" value="1" style="text;html=1;align=center;verticalAlign=middle;resizable=0;points=[];autosize=1;" parent="WIyWlLk6GJQsqaUBKTNV-1" vertex="1">
          <mxGeometry x="-60" y="111" width="20" height="20" as="geometry" />
        </mxCell>
        <mxCell id="vttsbmmWQYoynth4GKyR-122" value="1" style="text;html=1;align=center;verticalAlign=middle;resizable=0;points=[];autosize=1;" parent="WIyWlLk6GJQsqaUBKTNV-1" vertex="1">
          <mxGeometry x="190" y="30" width="20" height="20" as="geometry" />
        </mxCell>
        <mxCell id="vttsbmmWQYoynth4GKyR-124" value="1..*" style="text;html=1;align=center;verticalAlign=middle;resizable=0;points=[];autosize=1;" parent="WIyWlLk6GJQsqaUBKTNV-1" vertex="1">
          <mxGeometry x="625" y="-480" width="30" height="20" as="geometry" />
        </mxCell>
        <mxCell id="vttsbmmWQYoynth4GKyR-125" value="0..*" style="text;html=1;align=center;verticalAlign=middle;resizable=0;points=[];autosize=1;" parent="WIyWlLk6GJQsqaUBKTNV-1" vertex="1">
          <mxGeometry x="625" y="-580" width="30" height="20" as="geometry" />
        </mxCell>
        <mxCell id="vttsbmmWQYoynth4GKyR-126" value="1" style="text;html=1;align=center;verticalAlign=middle;resizable=0;points=[];autosize=1;" parent="WIyWlLk6GJQsqaUBKTNV-1" vertex="1">
          <mxGeometry x="550" y="-580" width="20" height="20" as="geometry" />
        </mxCell>
        <mxCell id="vttsbmmWQYoynth4GKyR-127" value="0..*" style="text;html=1;align=center;verticalAlign=middle;resizable=0;points=[];autosize=1;" parent="WIyWlLk6GJQsqaUBKTNV-1" vertex="1">
          <mxGeometry x="110" y="-504" width="30" height="20" as="geometry" />
        </mxCell>
        <mxCell id="vttsbmmWQYoynth4GKyR-128" value="1" style="text;html=1;align=center;verticalAlign=middle;resizable=0;points=[];autosize=1;" parent="WIyWlLk6GJQsqaUBKTNV-1" vertex="1">
          <mxGeometry x="5" y="-384" width="20" height="20" as="geometry" />
        </mxCell>
        <mxCell id="vttsbmmWQYoynth4GKyR-129" value="0..*" style="text;html=1;align=center;verticalAlign=middle;resizable=0;points=[];autosize=1;" parent="WIyWlLk6GJQsqaUBKTNV-1" vertex="1">
          <mxGeometry x="-10" y="-468" width="30" height="20" as="geometry" />
        </mxCell>
        <mxCell id="vttsbmmWQYoynth4GKyR-130" value="0..*" style="text;html=1;align=center;verticalAlign=middle;resizable=0;points=[];autosize=1;" parent="WIyWlLk6GJQsqaUBKTNV-1" vertex="1">
          <mxGeometry x="50" y="-270" width="30" height="20" as="geometry" />
        </mxCell>
        <mxCell id="vttsbmmWQYoynth4GKyR-131" value="1" style="text;html=1;align=center;verticalAlign=middle;resizable=0;points=[];autosize=1;" parent="WIyWlLk6GJQsqaUBKTNV-1" vertex="1">
          <mxGeometry x="230" y="-230" width="20" height="20" as="geometry" />
        </mxCell>
        <mxCell id="vttsbmmWQYoynth4GKyR-132" value="1" style="text;html=1;align=center;verticalAlign=middle;resizable=0;points=[];autosize=1;" parent="WIyWlLk6GJQsqaUBKTNV-1" vertex="1">
          <mxGeometry x="320" y="-580" width="20" height="20" as="geometry" />
        </mxCell>
        <mxCell id="vttsbmmWQYoynth4GKyR-133" value="1" style="text;html=1;align=center;verticalAlign=middle;resizable=0;points=[];autosize=1;" parent="WIyWlLk6GJQsqaUBKTNV-1" vertex="1">
          <mxGeometry x="320" y="-300" width="20" height="20" as="geometry" />
        </mxCell>
        <mxCell id="vttsbmmWQYoynth4GKyR-134" value="1" style="text;html=1;align=center;verticalAlign=middle;resizable=0;points=[];autosize=1;" parent="WIyWlLk6GJQsqaUBKTNV-1" vertex="1">
          <mxGeometry x="300" y="-150" width="20" height="20" as="geometry" />
        </mxCell>
        <mxCell id="vttsbmmWQYoynth4GKyR-135" value="1" style="text;html=1;align=center;verticalAlign=middle;resizable=0;points=[];autosize=1;" parent="WIyWlLk6GJQsqaUBKTNV-1" vertex="1">
          <mxGeometry x="260" y="-90" width="20" height="20" as="geometry" />
        </mxCell>
        <mxCell id="wF1H9ZoLy-IsOHRcpP01-0" value="" style="rounded=0;whiteSpace=wrap;html=1;fillColor=none;" vertex="1" parent="WIyWlLk6GJQsqaUBKTNV-1">
          <mxGeometry x="-263" y="-1090" width="1090" height="1650" as="geometry" />
        </mxCell>
        <mxCell id="wF1H9ZoLy-IsOHRcpP01-2" value="" style="endArrow=diamondThin;endFill=1;endSize=24;html=1;entryX=0.013;entryY=1.02;entryDx=0;entryDy=0;exitX=1;exitY=0.5;exitDx=0;exitDy=0;entryPerimeter=0;" edge="1" parent="WIyWlLk6GJQsqaUBKTNV-1" target="wF1H9ZoLy-IsOHRcpP01-16">
          <mxGeometry width="160" relative="1" as="geometry">
            <mxPoint x="20" y="176" as="sourcePoint" />
            <mxPoint x="140" y="183" as="targetPoint" />
          </mxGeometry>
        </mxCell>
        <mxCell id="wF1H9ZoLy-IsOHRcpP01-6" value="1..*" style="text;html=1;align=center;verticalAlign=middle;resizable=0;points=[];autosize=1;" vertex="1" parent="WIyWlLk6GJQsqaUBKTNV-1">
          <mxGeometry x="525" y="-60" width="30" height="20" as="geometry" />
        </mxCell>
        <mxCell id="wF1H9ZoLy-IsOHRcpP01-7" value="1" style="text;html=1;align=center;verticalAlign=middle;resizable=0;points=[];autosize=1;" vertex="1" parent="WIyWlLk6GJQsqaUBKTNV-1">
          <mxGeometry x="390" y="-126" width="20" height="20" as="geometry" />
        </mxCell>
        <mxCell id="wF1H9ZoLy-IsOHRcpP01-8" value="1" style="text;html=1;align=center;verticalAlign=middle;resizable=0;points=[];autosize=1;" vertex="1" parent="WIyWlLk6GJQsqaUBKTNV-1">
          <mxGeometry x="125" y="150" width="20" height="20" as="geometry" />
        </mxCell>
        <mxCell id="wF1H9ZoLy-IsOHRcpP01-10" value="1" style="text;html=1;align=center;verticalAlign=middle;resizable=0;points=[];autosize=1;" vertex="1" parent="WIyWlLk6GJQsqaUBKTNV-1">
          <mxGeometry x="20" y="154" width="20" height="20" as="geometry" />
        </mxCell>
        <mxCell id="wF1H9ZoLy-IsOHRcpP01-12" value="1" style="text;html=1;align=center;verticalAlign=middle;resizable=0;points=[];autosize=1;" vertex="1" parent="WIyWlLk6GJQsqaUBKTNV-1">
          <mxGeometry x="220" y="-582" width="20" height="20" as="geometry" />
        </mxCell>
        <mxCell id="wF1H9ZoLy-IsOHRcpP01-13" value="0..*" style="text;html=1;align=center;verticalAlign=middle;resizable=0;points=[];autosize=1;" vertex="1" parent="WIyWlLk6GJQsqaUBKTNV-1">
          <mxGeometry x="115" y="-340" width="30" height="20" as="geometry" />
        </mxCell>
        <mxCell id="vttsbmmWQYoynth4GKyR-123" value="1" style="text;html=1;align=center;verticalAlign=middle;resizable=0;points=[];autosize=1;" parent="WIyWlLk6GJQsqaUBKTNV-1" vertex="1">
          <mxGeometry x="120" y="100" width="160" height="20" as="geometry" />
        </mxCell>
        <mxCell id="wF1H9ZoLy-IsOHRcpP01-15" value="Payment" style="swimlane;fontStyle=1;align=center;verticalAlign=top;childLayout=stackLayout;horizontal=1;startSize=26;horizontalStack=0;resizeParent=1;resizeLast=0;collapsible=1;marginBottom=0;rounded=0;shadow=0;strokeWidth=1;fillColor=#e1d5e7;strokeColor=#9673a6;" vertex="1" parent="WIyWlLk6GJQsqaUBKTNV-1">
          <mxGeometry x="150" y="120" width="160" height="100" as="geometry">
            <mxRectangle x="340" y="380" width="170" height="26" as="alternateBounds" />
          </mxGeometry>
        </mxCell>
        <mxCell id="wF1H9ZoLy-IsOHRcpP01-16" value="+ amount: double&lt;br&gt;+ paymentOption: string" style="text;html=1;align=left;verticalAlign=middle;resizable=0;points=[];autosize=1;" vertex="1" parent="wF1H9ZoLy-IsOHRcpP01-15">
          <mxGeometry y="26" width="160" height="30" as="geometry" />
        </mxCell>
        <mxCell id="wF1H9ZoLy-IsOHRcpP01-17" value="" style="line;html=1;strokeWidth=1;align=left;verticalAlign=middle;spacingTop=-1;spacingLeft=3;spacingRight=3;rotatable=0;labelPosition=right;points=[];portConstraint=eastwest;" vertex="1" parent="wF1H9ZoLy-IsOHRcpP01-15">
          <mxGeometry y="56" width="160" height="44" as="geometry" />
        </mxCell>
      </root>
    </mxGraphModel>
  </diagram>
</mxfile>
